<?xml version="1.0" encoding="UTF-8"?>
<!DOCTYPE svg PUBLIC "-//W3C//DTD SVG 1.1//EN" "http://www.w3.org/Graphics/SVG/1.1/DTD/svg11.dtd">
<!-- Creator: CorelDRAW -->
<svg xmlns="http://www.w3.org/2000/svg" xml:space="preserve" width="300px" height="250px" style="shape-rendering:geometricPrecision; text-rendering:geometricPrecision; image-rendering:optimizeQuality; fill-rule:evenodd; clip-rule:evenodd"
viewBox="0 0 300 249.999"
 xmlns:xlink="http://www.w3.org/1999/xlink"
 enable-background="new 0 0 100 100"
 version="1.1"
 xmlns:graph="http://ns.adobe.com/Graphs/1.0/"
 xmlns:i="http://ns.adobe.com/AdobeIllustrator/10.0/"
 xmlns:x="http://ns.adobe.com/Extensibility/1.0/">
 <defs>
  <style type="text/css">
   <![CDATA[
    .fil0 {fill:#B42828}
   ]]>
  </style>
 </defs>
 <g id="Capa_x0020_1">
  <metadata id="CorelCorpID_0Corel-Layer"/>
  <path class="fil0" d="M67.8756 62.2122c-11.0563,0 -20.022,-8.98465 -20.022,-20.0433 0,-11.0622 8.96575,-20.0374 20.022,-20.0374 11.0846,0 20.0622,8.97756 20.0622,20.0374 0,11.0598 -8.97756,20.0433 -20.0622,20.0433z"/>
  <path class="fil0" d="M26.3386 101.009l33.6094 5.24409c4.79055,0.744094 9.8315,-2.44724 11.1909,-7.10315l9.25276 -31.637c1.36299,-4.65354 6.0189,-10.2496 10.35,-12.4346l45.8906 -23.172c4.3311,-2.18386 11.7283,-3.02835 16.4409,-1.87559l40.2472 9.85276c4.7126,1.15276 8.56535,5.66929 8.56535,10.0346 0,4.36535 -3.8563,7.0122 -8.57244,5.88071l-35.2193 -8.4437c-4.7185,-1.1315 -11.9776,-0.0153543 -16.1374,2.47559l-11.4035 6.82795c-4.1622,2.49094 -4.17165,6.58465 -0.0224409,9.10039l35.3067 21.3756c4.14685,2.51575 9.48071,7.39724 11.8535,10.8591 2.36929,3.45354 -6.6685,22.4717 -8.74961,26.8559l-10.9996 23.3091c-2.07756,4.38071 0.190157,8.09409 5.04094,8.09409l44.6622 0c4.84961,0 8.49685,3.82795 8.09646,8.65984l-0.571654 5.6752c-0.393307,4.83661 -4.6878,7.53661 -9.54094,7.53661l-77.7815 0c-4.84724,0 -7.40669,-2.52165 -5.68701,-7.05591l13.6217 -35.2724c1.72559,-4.53425 4.2189,-11.7661 5.54055,-16.428l0.455906 -1.45984c1.3252,-4.66535 -1.01929,-10.4126 -5.2063,-12.8528l-24.4996 -14.2535c-4.18701,-2.4437 -9.80906,-5.49685 -12.4937,-6.80906 -2.67756,-1.30984 -5.95984,1.44331 -7.2874,6.1122l-8.39409 29.4567c-1.3252,4.66535 -6.29409,7.64646 -11.0315,6.62244l-46.6276 -10.0937c-4.7374,-1.02756 -8.6185,-5.1437 -8.6185,-9.15354 0,-4.00984 3.92835,-6.67441 8.7189,-5.92795z"/>
  <path class="fil0" d="M153.17 184.375l18.8091 0c4.85315,0 12.0567,1.74094 16.0157,4.54724l22.0689 15.372c3.95669,2.80276 4.89331,8.19331 2.08701,12.1535l-4.3689 6.0874c-2.80984,3.95669 -8.2122,4.68425 -12.0059,1.66535l-44.5252 -34.872c-3.7937,-3.0189 -2.9315,-4.95354 1.91929,-4.95354z"/>
  <path class="fil0" d="M176.126 78.124c-4.84961,0 -8.81929,-1.59331 -8.81929,-3.1252 0,-1.53189 3.97205,-3.1252 8.81929,-3.1252l92.7591 0.0011811c4.84961,0 8.81929,1.59331 8.81929,3.1252 0,1.53189 -3.97205,3.1252 -8.81929,3.1252l-92.7591 -0.0011811z"/>
  <path class="fil0" d="M180.81 87.4996c0,-1.53071 3.97205,-3.1252 8.81929,-3.1252l68.4685 0c4.85315,0 8.81929,1.59331 8.81929,3.1252 0,1.53189 -3.9685,3.1252 -8.81929,3.1252l-68.4661 0c-4.84961,0 -8.82165,-1.59449 -8.82165,-3.1252z"/>
  <path class="fil0" d="M185.28 99.9992c0,-1.52835 3.9685,-3.1252 8.81575,-3.1252l56.8217 0c4.85315,0 8.82165,1.59685 8.82165,3.1252 0,1.53071 -3.97205,3.1252 -8.82165,3.1252l-56.8217 0c-4.84724,0 -8.81575,-1.59331 -8.81575,-3.1252z"/>
 </g>
</svg>
